<svg xmlns="http://www.w3.org/2000/svg" viewBox="0 0 60 60"><rect style="fill:#4dc74d;" width="60" height="60"/><g><path style="fill:#FFFFFF;" d="M20.791,48.287H19.13c-2.018,0-3.472-0.543-4.362-1.629c-0.89-1.087-1.335-3.101-1.335-6.044v-2.019c0-2.62-0.343-4.445-1.03-5.476c-0.687-1.03-1.794-1.545-3.321-1.545v-3.427c1.527,0,2.634-0.515,3.321-1.545c0.687-1.03,1.03-2.855,1.03-5.476v-2.039c0-2.929,0.445-4.937,1.335-6.022c0.89-1.086,2.344-1.629,4.362-1.629h1.661v2.754h-0.63c-1.303,0-2.211,0.28-2.722,0.841c-0.512,0.561-0.768,1.899-0.768,4.015v1.345c0,2.901-0.336,5.038-1.009,6.412c-0.673,1.374-1.815,2.39-3.427,3.048c1.611,0.673,2.754,1.696,3.427,3.069c0.672,1.374,1.009,3.511,1.009,6.412v1.345c0,2.116,0.256,3.455,0.768,4.016c0.511,0.561,1.419,0.841,2.722,0.841h0.63V48.287z"/></g><g><path style="fill:#FFFFFF;" d="M39.322,45.533h0.631c1.303,0,2.211-0.28,2.722-0.841c0.512-0.561,0.768-1.899,0.768-4.016v-1.345c0-2.901,0.337-5.038,1.009-6.412c0.673-1.373,1.815-2.396,3.427-3.069c-1.611-0.658-2.754-1.674-3.427-3.048c-0.672-1.374-1.009-3.511-1.009-6.412v-1.345c0-2.116-0.256-3.455-0.768-4.015c-0.511-0.561-1.419-0.841-2.722-0.841h-0.631v-2.754h1.66c2.019,0,3.473,0.543,4.362,1.629s1.335,3.094,1.335,6.022v2.039c0,2.621,0.344,4.446,1.029,5.476c0.688,1.03,1.795,1.545,3.322,1.545v3.427c-1.527,0-2.635,0.515-3.322,1.545c-0.686,1.03-1.029,2.855-1.029,5.476v2.019c0,2.943-0.445,4.957-1.335,6.044c-0.89,1.086-2.344,1.629-4.362,1.629h-1.66V45.533z"/></g><g><path style="fill:#FFFFFF;" d="M28.195,34.484c0,0.998-0.172,1.704-0.516,2.12c-0.344,0.415-0.944,0.622-1.799,0.622c-0.55,0-1.161-0.104-1.833-0.313l0.313-0.97c0.565,0.163,1.072,0.244,1.521,0.244c0.428,0,0.722-0.121,0.882-0.362c0.161-0.242,0.241-0.73,0.241-1.464V27.15h-2.345v-1.031h3.537V34.484z M27.615,23.108c0.224,0,0.415,0.08,0.573,0.241c0.158,0.16,0.237,0.353,0.237,0.577c0,0.234-0.078,0.431-0.233,0.588s-0.348,0.237-0.577,0.237c-0.209,0-0.394-0.083-0.554-0.249c-0.16-0.165-0.24-0.357-0.24-0.577c0-0.219,0.08-0.41,0.24-0.573C27.221,23.19,27.406,23.108,27.615,23.108z"/><path style="fill:#FFFFFF;" d="M35.922,27.257c-0.668-0.219-1.297-0.329-1.887-0.329c-0.646,0-1.16,0.108-1.537,0.325c-0.377,0.217-0.564,0.505-0.564,0.867c0,0.229,0.086,0.429,0.26,0.6c0.174,0.171,0.52,0.33,1.039,0.478l1.139,0.329c0.523,0.147,0.951,0.325,1.283,0.531c0.33,0.207,0.58,0.456,0.744,0.749c0.166,0.293,0.248,0.633,0.248,1.02c0,0.759-0.318,1.358-0.953,1.8c-0.637,0.44-1.447,0.66-2.43,0.66c-0.979,0-1.786-0.147-2.422-0.443l0.229-1.031c0.667,0.316,1.383,0.474,2.146,0.474c0.662,0,1.201-0.123,1.615-0.37c0.416-0.247,0.623-0.574,0.623-0.981c0-0.275-0.104-0.521-0.309-0.737c-0.207-0.217-0.691-0.442-1.455-0.676c-0.617-0.188-1.07-0.33-1.361-0.424c-0.289-0.094-0.56-0.233-0.809-0.416c-0.25-0.184-0.439-0.402-0.569-0.657c-0.13-0.254-0.195-0.54-0.195-0.855c0-0.688,0.3-1.232,0.901-1.635c0.602-0.402,1.398-0.604,2.393-0.604c0.641,0,1.354,0.11,2.139,0.329L35.922,27.257z"/></g></svg>