<svg xmlns="http://www.w3.org/2000/svg" viewBox="0 0 60 60"><rect y="-0.083" style="fill:#89c1fa;" width="59.917" height="60.083"/><rect x="5" y="5" style="fill:#2E2B71;" width="50" height="50"/><g><path style="fill:#89c1fa;" d="M19.823,33.546v8.892h-4.699v-25.26h8.228c1.688,0,3.15,0.198,4.385,0.594c1.234,0.396,2.253,0.949,3.057,1.66c0.804,0.71,1.397,1.561,1.782,2.55c0.384,0.99,0.576,2.073,0.576,3.25c0,1.223-0.204,2.344-0.611,3.362c-0.408,1.02-1.02,1.896-1.834,2.629c-0.815,0.733-1.834,1.305-3.057,1.712c-1.223,0.407-2.655,0.611-4.297,0.611H19.823z M19.823,29.877h3.529c0.862,0,1.613-0.107,2.253-0.323c0.64-0.215,1.17-0.524,1.59-0.926c0.419-0.402,0.733-0.891,0.943-1.467c0.209-0.577,0.314-1.22,0.314-1.93c0-0.675-0.104-1.287-0.314-1.834c-0.21-0.547-0.524-1.013-0.943-1.397c-0.419-0.384-0.95-0.678-1.59-0.882c-0.641-0.204-1.392-0.306-2.253-0.306h-3.529V29.877z"/><path style="fill:#89c1fa;" d="M45.799,28.008c-0.116,0.187-0.239,0.317-0.367,0.393s-0.291,0.113-0.488,0.113c-0.21,0-0.435-0.058-0.673-0.174c-0.239-0.116-0.516-0.248-0.83-0.393s-0.673-0.277-1.074-0.393s-0.876-0.175-1.424-0.175c-0.85,0-1.52,0.181-2.009,0.542c-0.489,0.361-0.733,0.833-0.733,1.415c0,0.384,0.125,0.708,0.375,0.969c0.251,0.262,0.583,0.492,0.996,0.69c0.413,0.198,0.882,0.375,1.406,0.533s1.06,0.329,1.607,0.515c0.547,0.188,1.083,0.399,1.606,0.639c0.524,0.238,0.993,0.541,1.406,0.908c0.414,0.366,0.745,0.807,0.996,1.318c0.25,0.513,0.376,1.13,0.376,1.852c0,0.862-0.157,1.657-0.472,2.385c-0.314,0.729-0.775,1.356-1.381,1.887s-1.354,0.943-2.244,1.24s-1.913,0.445-3.066,0.445c-0.617,0-1.22-0.056-1.808-0.166s-1.153-0.265-1.694-0.463c-0.542-0.197-1.043-0.431-1.502-0.698c-0.461-0.268-0.865-0.56-1.215-0.874l0.996-1.642c0.128-0.198,0.279-0.35,0.454-0.454c0.175-0.105,0.396-0.157,0.664-0.157c0.268,0,0.521,0.075,0.76,0.227c0.238,0.151,0.516,0.314,0.83,0.489s0.684,0.338,1.108,0.489c0.426,0.151,0.964,0.228,1.616,0.228c0.513,0,0.952-0.062,1.319-0.184c0.366-0.122,0.669-0.282,0.908-0.48c0.238-0.198,0.413-0.428,0.523-0.69c0.111-0.262,0.166-0.532,0.166-0.812c0-0.419-0.125-0.762-0.375-1.03c-0.251-0.268-0.583-0.501-0.996-0.698c-0.413-0.198-0.885-0.376-1.415-0.533s-1.071-0.329-1.624-0.516c-0.554-0.186-1.095-0.404-1.625-0.655c-0.53-0.25-1.002-0.567-1.415-0.951c-0.413-0.385-0.745-0.856-0.995-1.416c-0.251-0.559-0.376-1.234-0.376-2.026c0-0.733,0.146-1.432,0.437-2.096c0.291-0.664,0.719-1.243,1.284-1.738c0.564-0.495,1.27-0.891,2.113-1.188c0.845-0.297,1.82-0.446,2.927-0.446c1.234,0,2.358,0.204,3.371,0.611c1.014,0.408,1.857,0.943,2.533,1.607L45.799,28.008z"/></g></svg>