<svg xmlns="http://www.w3.org/2000/svg" viewBox="0 0 60 60"><rect y="-0.083" style="fill:#FDC65E;" width="60" height="60"/><rect x="5" y="5" style="fill:#5C4422;" width="50" height="50"/><g><path style="fill:#FDC65E;" d="M38.169,42.438h-3.633c-0.408,0-0.743-0.102-1.005-0.306s-0.451-0.457-0.567-0.76l-1.887-5.153H20.613l-1.887,5.153c-0.093,0.268-0.277,0.513-0.55,0.733c-0.274,0.222-0.609,0.332-1.004,0.332h-3.651l9.922-25.26h4.804L38.169,42.438z M21.818,32.899h8.053l-3.074-8.402c-0.14-0.373-0.294-0.812-0.463-1.319c-0.169-0.507-0.334-1.057-0.498-1.651c-0.163,0.594-0.323,1.147-0.48,1.66s-0.312,0.96-0.463,1.345L21.818,32.899z"/><path style="fill:#FDC65E;" d="M44.371,19.292c0,0.373-0.076,0.722-0.228,1.048c-0.151,0.326-0.353,0.611-0.603,0.856c-0.251,0.245-0.545,0.44-0.882,0.585c-0.338,0.146-0.699,0.218-1.083,0.218c-0.373,0-0.726-0.073-1.058-0.218s-0.62-0.341-0.864-0.585c-0.245-0.245-0.439-0.53-0.585-0.856c-0.146-0.326-0.219-0.675-0.219-1.048c0-0.384,0.072-0.745,0.219-1.083c0.146-0.337,0.34-0.628,0.585-0.873c0.244-0.245,0.532-0.439,0.864-0.585c0.332-0.146,0.685-0.218,1.058-0.218c0.384,0,0.745,0.073,1.083,0.218c0.337,0.146,0.631,0.341,0.882,0.585c0.25,0.245,0.451,0.536,0.603,0.873C44.295,18.546,44.371,18.907,44.371,19.292z M43.725,24.515v17.923h-4.315V24.515H43.725z"/></g></svg>