<svg xmlns="http://www.w3.org/2000/svg" viewBox="0 0 60 60"><rect y="-0.083" style="fill:#F1662A;" width="59.917" height="60.083"/><polygon style="fill:#FFFFFF;" points="15.625,5.5 15.625,12.083 17.875,12.083 17.875,9.875 19.792,9.875 19.792,12.083 22.167,12.083 22.167,5.5 19.875,5.5 19.875,7.708 17.917,7.708 17.917,5.5 "/><polygon style="fill:#FFFFFF;" points="23.125,5.5 23.125,7.708 25.083,7.708 25.083,12.083 27.292,12.083 27.292,7.667 29.208,7.667 29.208,5.5 "/><polygon style="fill:#FFFFFF;" points="30.292,5.5 30.292,12.083 32.458,12.083 32.458,8.792 33.958,11.125 35.458,8.958 35.458,12.083 37.792,12.083 37.792,5.5 35.375,5.5 34.042,7.708 32.667,5.5 "/><polygon style="fill:#FFFFFF;" points="38.875,5.5 38.875,12.083 44.292,12.083 44.292,9.833 41.167,9.833 41.167,5.5 "/><polygon style="fill:#FFFFFF;" points="12.375,15 15.625,50.583 29.958,54.583 44.292,50.583 47.542,15 "/><polygon style="fill:#F1662A;" points="40.542,26.458 23.625,26.458 24,31.125 40.167,31.125 38.875,44.459 30,46.959 21.042,44.5 20.375,37.584 24.583,37.584 24.958,41.209 29.958,42.667 34.917,41.292 35.459,35.417 20.208,35.417 18.896,22.292 40.959,22.292 "/></svg>