<svg xmlns="http://www.w3.org/2000/svg" viewBox="0 0 60 60"><rect y="-0.083" style="fill:#c78dfe;" width="60" height="60"/><rect x="5" y="5" style="fill:#2F2B63;" width="50" height="50"/><g><path style="fill:#c78dfe;" d="M34.169,42.438h-3.633c-0.408,0-0.743-0.102-1.005-0.306s-0.451-0.457-0.567-0.76l-1.887-5.153H16.613l-1.887,5.153c-0.093,0.268-0.277,0.513-0.55,0.733c-0.274,0.222-0.609,0.332-1.004,0.332H9.521l9.922-25.26h4.804L34.169,42.438z M17.818,32.899h8.053l-3.074-8.402c-0.14-0.373-0.294-0.812-0.463-1.319c-0.169-0.507-0.334-1.057-0.498-1.651c-0.163,0.594-0.323,1.147-0.48,1.66s-0.312,0.96-0.463,1.345L17.818,32.899z"/><path style="fill:#c78dfe;" d="M41.838,24.235c1.129,0,2.169,0.181,3.118,0.542c0.949,0.361,1.767,0.888,2.454,1.581s1.223,1.543,1.607,2.55c0.384,1.008,0.576,2.158,0.576,3.45c0,0.327-0.015,0.598-0.044,0.812c-0.029,0.216-0.081,0.385-0.157,0.507c-0.075,0.122-0.178,0.21-0.306,0.262c-0.128,0.053-0.291,0.079-0.489,0.079H37.522c0.128,1.84,0.623,3.191,1.485,4.053c0.861,0.862,2.003,1.293,3.424,1.293c0.698,0,1.302-0.082,1.808-0.245c0.507-0.163,0.949-0.343,1.328-0.541c0.378-0.198,0.71-0.379,0.995-0.542c0.286-0.163,0.562-0.244,0.83-0.244c0.175,0,0.326,0.035,0.454,0.104c0.128,0.07,0.239,0.169,0.332,0.297l1.258,1.572c-0.478,0.56-1.013,1.028-1.607,1.406c-0.594,0.379-1.214,0.682-1.86,0.908c-0.646,0.228-1.304,0.388-1.974,0.48c-0.67,0.094-1.319,0.14-1.948,0.14c-1.246,0-2.404-0.207-3.476-0.62c-1.072-0.413-2.004-1.024-2.795-1.834c-0.793-0.81-1.415-1.811-1.869-3.005c-0.455-1.193-0.682-2.576-0.682-4.148c0-1.223,0.198-2.373,0.594-3.45s0.964-2.015,1.703-2.812c0.739-0.797,1.643-1.429,2.708-1.896C39.296,24.468,40.498,24.235,41.838,24.235z M41.925,27.327c-1.258,0-2.242,0.355-2.952,1.065s-1.165,1.718-1.362,3.021h8.105c0-0.559-0.076-1.085-0.228-1.58s-0.384-0.929-0.698-1.302c-0.314-0.373-0.711-0.667-1.188-0.882C43.124,27.435,42.565,27.327,41.925,27.327z"/></g></svg>