<svg xmlns="http://www.w3.org/2000/svg" viewBox="0 0 60 60"><g><rect x="0.5" y="0.5" style="fill:#EFEFEF;" width="59" height="59"/><path style="fill:#D7D7D7;" d="M59,1v58H1V1H59 M60,0H0v60h60V0L60,0z"/></g><path style="fill:#B0AFB0;" d="M24,19.5c0,2.761-2.239,5-5,5l0,0c-2.761,0-5-2.239-5-5V-5.25c0-2.761,2.239-5,5-5l0,0c2.761,0,5,2.239,5,5V19.5z"/><path style="fill:#B0AFB0;" d="M46,20.125c0,2.761-2.238,5-5,5l0,0c-2.762,0-5-2.239-5-5v-24.75c0-2.761,2.238-5,5-5l0,0c2.762,0,5,2.239,5,5V20.125z"/><path id="_x31_" style="fill:#B0AFB0;" d="M-0.25,39.875c0,0,12.625-9.062,33.837,0.245c0,0,12.788,6.13,28.726-5.62v8.688c0,0-12.594,10.938-34.438,3.312c0,0-15.375-7.25-29,1.875L-0.25,39.875z"/></svg>