<svg xmlns="http://www.w3.org/2000/svg" viewBox="0 0 60 60"><rect y="-0.083" style="fill:#28A8E0;" width="60" height="60"/><polygon style="fill:#FFFFFF;" points="12.375,15 15.625,50.583 29.958,54.583 44.292,50.583 47.542,15 "/><polygon style="fill:#28A8E0;" points="40.542,26.458 37.209,28.083 30.208,31.125 40.167,31.125 38.875,44.459 30,46.959 21.042,44.5 20.375,37.584 24.583,37.584 24.958,41.209 29.958,42.667 34.917,41.292 35.459,35.417 20.208,35.417 19.854,31.146 29.841,26.994 29.844,26.52 19.25,26.5 18.896,22.292 40.959,22.292 "/><polygon style="fill:#FFFFFF;" points="25.398,5.503 25.398,7.571 22.161,7.571 22.161,10.404 25.398,10.404 25.398,12.292 19.958,12.292 19.958,5.503 "/><polygon style="fill:#FFFFFF;" points="26.942,5.503 26.942,7.571 29.415,9.999 29.415,10.404 26.942,10.404 26.942,12.292 32.472,12.292 32.472,10.224 30.448,8.201 30.448,7.662 32.472,7.662 32.472,5.503 "/><polygon style="fill:#FFFFFF;" points="33.887,5.503 33.887,7.571 36.359,9.999 36.359,10.404 33.887,10.404 33.887,12.292 39.417,12.292 39.417,10.224 37.394,8.201 37.394,7.662 39.417,7.662 39.417,5.503 "/></svg>