<svg fill="#e530a3" xmlns="http://www.w3.org/2000/svg" viewBox="0 0 80 80"><g><path d="M33.512,43.075L11.675,21.238c-3.158-3.159-3.525-7.93-0.819-10.636c1.166-1.166,2.788-1.808,4.567-1.808c2.188,0,4.4,0.958,6.069,2.626l6.761,6.762h11.314L27.148,5.764c-3.159-3.158-7.433-4.969-11.726-4.969c-3.916,0-7.546,1.474-10.224,4.151c-5.825,5.825-5.458,15.672,0.819,21.95L19.803,40.68l2.266,1.453l2.625,0.942H33.512z"/></g><g><path d="M73.983,53.105L60.198,39.321l-2.266-1.453l-2.625-0.942h-8.818l21.837,21.836c3.157,3.159,3.524,7.931,0.819,10.637c-1.166,1.166-2.798,1.172-4.577,1.172c-1.05,0-0.418,0.016-3.094-0.005v8.323c1.023,0.206,2.062,0.317,3.104,0.317c3.915,0,7.546-1.474,10.224-4.15C80.627,69.23,80.26,59.383,73.983,53.105z"/></g><path d="M57.105,56.908c-1.471,1.47-3.571,1.75-4.694,0.627L21.512,26.636c-1.123-1.123-0.843-3.225,0.627-4.695l0,0c1.469-1.469,3.569-1.749,4.694-0.626l30.899,30.899C58.854,53.338,58.575,55.439,57.105,56.908L57.105,56.908z"/></svg>